<mxfile host="app.diagrams.net" modified="2020-11-04T14:32:03.671Z" agent="5.0 (Windows)" etag="XeBTIv09346-gVeOi4IF" version="13.1.1" type="github">
  <diagram id="R2lEEEUBdFMjLlhIrx00" name="Page-1">
    <mxGraphModel dx="1181" dy="196" grid="1" gridSize="10" guides="1" tooltips="1" connect="1" arrows="1" fold="1" page="1" pageScale="1" pageWidth="850" pageHeight="1100" math="0" shadow="0" extFonts="Permanent Marker^https://fonts.googleapis.com/css?family=Permanent+Marker">
      <root>
        <mxCell id="0" />
        <mxCell id="1" parent="0" />
        <mxCell id="sZon18tw1CkqyWqWMbGt-2" value="&lt;font style=&quot;font-size: 37px&quot;&gt;AL&lt;/font&gt;" style="ellipse;whiteSpace=wrap;html=1;aspect=fixed;" parent="1" vertex="1">
          <mxGeometry x="-200" y="540" width="160" height="160" as="geometry" />
        </mxCell>
        <mxCell id="sZon18tw1CkqyWqWMbGt-3" value="&lt;font style=&quot;font-size: 24px&quot;&gt;ATLAS&lt;/font&gt;" style="whiteSpace=wrap;html=1;aspect=fixed;" parent="1" vertex="1">
          <mxGeometry x="-340" y="350" width="100" height="100" as="geometry" />
        </mxCell>
        <mxCell id="sZon18tw1CkqyWqWMbGt-4" value="&lt;div&gt;&lt;font style=&quot;font-size: 24px&quot;&gt;File&lt;/font&gt;&lt;/div&gt;&lt;div&gt;&lt;font style=&quot;font-size: 18px&quot;&gt; &lt;font style=&quot;font-size: 24px&quot;&gt;Storage&lt;/font&gt;&lt;/font&gt;&lt;/div&gt;" style="whiteSpace=wrap;html=1;aspect=fixed;" parent="1" vertex="1">
          <mxGeometry x="-170" y="345" width="110" height="110" as="geometry" />
        </mxCell>
        <mxCell id="sZon18tw1CkqyWqWMbGt-5" value="&lt;font style=&quot;font-size: 24px&quot;&gt;Profile&lt;/font&gt;" style="whiteSpace=wrap;html=1;aspect=fixed;" parent="1" vertex="1">
          <mxGeometry x="-10" y="360" width="100" height="100" as="geometry" />
        </mxCell>
        <mxCell id="sZon18tw1CkqyWqWMbGt-6" value="&lt;div&gt;&lt;font style=&quot;font-size: 24px&quot;&gt;User&lt;/font&gt;&lt;/div&gt;&lt;div&gt;&lt;font style=&quot;font-size: 24px&quot;&gt; Manger&lt;/font&gt;&lt;/div&gt;" style="whiteSpace=wrap;html=1;aspect=fixed;" parent="1" vertex="1">
          <mxGeometry x="140" y="560" width="120" height="120" as="geometry" />
        </mxCell>
        <mxCell id="sZon18tw1CkqyWqWMbGt-8" value="" style="endArrow=none;html=1;entryX=0.5;entryY=1;entryDx=0;entryDy=0;" parent="1" target="sZon18tw1CkqyWqWMbGt-3" edge="1">
          <mxGeometry width="50" height="50" relative="1" as="geometry">
            <mxPoint x="-290" y="600" as="sourcePoint" />
            <mxPoint x="-260" y="450" as="targetPoint" />
          </mxGeometry>
        </mxCell>
        <mxCell id="sZon18tw1CkqyWqWMbGt-10" value="" style="endArrow=none;html=1;" parent="1" edge="1">
          <mxGeometry width="50" height="50" relative="1" as="geometry">
            <mxPoint x="-290" y="600" as="sourcePoint" />
            <mxPoint x="-196" y="600" as="targetPoint" />
          </mxGeometry>
        </mxCell>
        <mxCell id="sZon18tw1CkqyWqWMbGt-11" value="" style="endArrow=none;html=1;exitX=0.5;exitY=0;exitDx=0;exitDy=0;" parent="1" source="sZon18tw1CkqyWqWMbGt-2" edge="1">
          <mxGeometry width="50" height="50" relative="1" as="geometry">
            <mxPoint x="-130" y="500" as="sourcePoint" />
            <mxPoint x="-120" y="455" as="targetPoint" />
          </mxGeometry>
        </mxCell>
        <mxCell id="sZon18tw1CkqyWqWMbGt-13" value="" style="endArrow=none;html=1;entryX=0.5;entryY=1;entryDx=0;entryDy=0;" parent="1" target="sZon18tw1CkqyWqWMbGt-5" edge="1">
          <mxGeometry width="50" height="50" relative="1" as="geometry">
            <mxPoint x="40" y="560" as="sourcePoint" />
            <mxPoint x="80" y="460" as="targetPoint" />
          </mxGeometry>
        </mxCell>
        <mxCell id="sZon18tw1CkqyWqWMbGt-14" value="" style="endArrow=none;html=1;exitX=0.828;exitY=0.122;exitDx=0;exitDy=0;exitPerimeter=0;" parent="1" source="sZon18tw1CkqyWqWMbGt-2" edge="1">
          <mxGeometry width="50" height="50" relative="1" as="geometry">
            <mxPoint x="-60" y="560" as="sourcePoint" />
            <mxPoint x="40" y="560" as="targetPoint" />
          </mxGeometry>
        </mxCell>
        <mxCell id="sZon18tw1CkqyWqWMbGt-15" value="" style="endArrow=none;html=1;entryX=0;entryY=0.667;entryDx=0;entryDy=0;entryPerimeter=0;exitX=0.985;exitY=0.622;exitDx=0;exitDy=0;exitPerimeter=0;" parent="1" source="sZon18tw1CkqyWqWMbGt-2" target="sZon18tw1CkqyWqWMbGt-6" edge="1">
          <mxGeometry width="50" height="50" relative="1" as="geometry">
            <mxPoint x="-37" y="640" as="sourcePoint" />
            <mxPoint x="290" y="630" as="targetPoint" />
          </mxGeometry>
        </mxCell>
        <mxCell id="sZon18tw1CkqyWqWMbGt-16" value="&lt;font style=&quot;font-size: 24px&quot;&gt;Client&lt;/font&gt;" style="rounded=0;whiteSpace=wrap;html=1;" parent="1" vertex="1">
          <mxGeometry x="-180" y="840" width="120" height="60" as="geometry" />
        </mxCell>
        <mxCell id="sZon18tw1CkqyWqWMbGt-17" value="" style="endArrow=none;html=1;entryX=0.5;entryY=1;entryDx=0;entryDy=0;exitX=0.5;exitY=0;exitDx=0;exitDy=0;" parent="1" source="sZon18tw1CkqyWqWMbGt-16" target="sZon18tw1CkqyWqWMbGt-2" edge="1">
          <mxGeometry width="50" height="50" relative="1" as="geometry">
            <mxPoint x="80" y="630" as="sourcePoint" />
            <mxPoint x="130" y="580" as="targetPoint" />
          </mxGeometry>
        </mxCell>
        <mxCell id="sZon18tw1CkqyWqWMbGt-18" value="Header" style="text;html=1;strokeColor=none;fillColor=none;align=center;verticalAlign=middle;whiteSpace=wrap;rounded=0;" parent="1" vertex="1">
          <mxGeometry x="-110" y="790" width="40" height="20" as="geometry" />
        </mxCell>
        <mxCell id="sZon18tw1CkqyWqWMbGt-19" value="&lt;font style=&quot;font-size: 24px&quot;&gt;Unit&lt;/font&gt;" style="rounded=1;whiteSpace=wrap;html=1;fillColor=#dae8fc;strokeColor=#6c8ebf;" parent="1" vertex="1">
          <mxGeometry x="900" y="780" width="140" height="70" as="geometry" />
        </mxCell>
        <mxCell id="sZon18tw1CkqyWqWMbGt-20" value="&lt;font style=&quot;font-size: 14px&quot;&gt;&lt;b&gt;ISA&lt;/b&gt;&lt;/font&gt;" style="triangle;whiteSpace=wrap;html=1;rotation=-90;fillColor=#f8cecc;strokeColor=#b85450;" parent="1" vertex="1">
          <mxGeometry x="985" y="885" width="55" height="60" as="geometry" />
        </mxCell>
        <mxCell id="sZon18tw1CkqyWqWMbGt-22" value="" style="endArrow=none;html=1;entryX=0.813;entryY=0.998;entryDx=0;entryDy=0;entryPerimeter=0;exitX=1;exitY=0.5;exitDx=0;exitDy=0;fillColor=#f8cecc;strokeColor=#b85450;" parent="1" source="sZon18tw1CkqyWqWMbGt-20" target="sZon18tw1CkqyWqWMbGt-19" edge="1">
          <mxGeometry width="50" height="50" relative="1" as="geometry">
            <mxPoint x="990" y="900" as="sourcePoint" />
            <mxPoint x="1040" y="850" as="targetPoint" />
          </mxGeometry>
        </mxCell>
        <mxCell id="sZon18tw1CkqyWqWMbGt-23" value="&lt;font style=&quot;font-size: 24px&quot;&gt;Folder&lt;/font&gt;" style="ellipse;whiteSpace=wrap;html=1;fillColor=#ffe6cc;strokeColor=#d79b00;" parent="1" vertex="1">
          <mxGeometry x="960" y="1007.5" width="120" height="70" as="geometry" />
        </mxCell>
        <mxCell id="sZon18tw1CkqyWqWMbGt-24" value="&lt;font style=&quot;font-size: 18px&quot;&gt;Organization&lt;/font&gt;" style="ellipse;whiteSpace=wrap;html=1;fillColor=#ffe6cc;strokeColor=#d79b00;" parent="1" vertex="1">
          <mxGeometry x="820" y="1005" width="120" height="75" as="geometry" />
        </mxCell>
        <mxCell id="sZon18tw1CkqyWqWMbGt-25" value="&lt;font style=&quot;font-size: 24px&quot;&gt;Task&lt;/font&gt;" style="ellipse;whiteSpace=wrap;html=1;fillColor=#ffe6cc;strokeColor=#d79b00;" parent="1" vertex="1">
          <mxGeometry x="665" y="1005" width="120" height="80" as="geometry" />
        </mxCell>
        <mxCell id="sZon18tw1CkqyWqWMbGt-26" value="&lt;font style=&quot;font-size: 24px&quot;&gt;Desc&lt;/font&gt;" style="ellipse;whiteSpace=wrap;html=1;fillColor=#ffe6cc;strokeColor=#d79b00;" parent="1" vertex="1">
          <mxGeometry x="675" y="890" width="100" height="60" as="geometry" />
        </mxCell>
        <mxCell id="sZon18tw1CkqyWqWMbGt-27" value="&lt;font style=&quot;font-size: 24px&quot;&gt;Title&lt;/font&gt;" style="ellipse;whiteSpace=wrap;html=1;fillColor=#ffe6cc;strokeColor=#d79b00;" parent="1" vertex="1">
          <mxGeometry x="680" y="810" width="90" height="60" as="geometry" />
        </mxCell>
        <mxCell id="sZon18tw1CkqyWqWMbGt-28" value="&lt;font style=&quot;font-size: 18px&quot;&gt;Duedate&lt;/font&gt;" style="ellipse;whiteSpace=wrap;html=1;fillColor=#ffe6cc;strokeColor=#d79b00;" parent="1" vertex="1">
          <mxGeometry x="675" y="1160" width="100" height="60" as="geometry" />
        </mxCell>
        <mxCell id="sZon18tw1CkqyWqWMbGt-29" value="&lt;font style=&quot;font-size: 18px&quot;&gt;Priority&lt;/font&gt;" style="ellipse;whiteSpace=wrap;html=1;fillColor=#ffe6cc;strokeColor=#d79b00;" parent="1" vertex="1">
          <mxGeometry x="785" y="1157.5" width="100" height="65" as="geometry" />
        </mxCell>
        <mxCell id="sZon18tw1CkqyWqWMbGt-30" value="&lt;font style=&quot;font-size: 18px&quot;&gt;Done&lt;/font&gt;" style="ellipse;whiteSpace=wrap;html=1;fillColor=#ffe6cc;strokeColor=#d79b00;" parent="1" vertex="1">
          <mxGeometry x="555" y="1160" width="110" height="60" as="geometry" />
        </mxCell>
        <mxCell id="sZon18tw1CkqyWqWMbGt-31" style="endArrow=none;html=1;fontFamily=Helvetica;fontSize=11;fontColor=#000000;align=center;strokeColor=#d79b00;edgeStyle=orthogonalEdgeStyle;exitX=0.045;exitY=0.254;exitDx=0;exitDy=0;exitPerimeter=0;entryX=0;entryY=0.5;entryDx=0;entryDy=0;fillColor=#ffe6cc;" parent="1" source="sZon18tw1CkqyWqWMbGt-32" target="sZon18tw1CkqyWqWMbGt-20" edge="1">
          <mxGeometry relative="1" as="geometry" />
        </mxCell>
        <mxCell id="sZon18tw1CkqyWqWMbGt-32" value="&lt;font style=&quot;font-size: 24px&quot;&gt;File&lt;/font&gt;" style="ellipse;whiteSpace=wrap;html=1;fillColor=#ffe6cc;strokeColor=#d79b00;" parent="1" vertex="1">
          <mxGeometry x="1105" y="960" width="110" height="70" as="geometry" />
        </mxCell>
        <mxCell id="sZon18tw1CkqyWqWMbGt-33" style="endArrow=none;html=1;fontFamily=Helvetica;fontSize=11;fontColor=#000000;align=center;strokeColor=#d79b00;edgeStyle=orthogonalEdgeStyle;exitX=0.358;exitY=0.005;exitDx=0;exitDy=0;exitPerimeter=0;entryX=0;entryY=0.5;entryDx=0;entryDy=0;fillColor=#ffe6cc;" parent="1" source="sZon18tw1CkqyWqWMbGt-23" target="sZon18tw1CkqyWqWMbGt-20" edge="1">
          <mxGeometry relative="1" as="geometry">
            <mxPoint x="1144.9499999999998" y="977.7800000000002" as="sourcePoint" />
            <mxPoint x="997.5" y="942.5" as="targetPoint" />
          </mxGeometry>
        </mxCell>
        <mxCell id="sZon18tw1CkqyWqWMbGt-34" style="endArrow=none;html=1;fontFamily=Helvetica;fontSize=11;fontColor=#000000;align=center;strokeColor=#d79b00;edgeStyle=orthogonalEdgeStyle;exitX=0.5;exitY=0;exitDx=0;exitDy=0;entryX=0;entryY=0.5;entryDx=0;entryDy=0;fillColor=#ffe6cc;" parent="1" source="sZon18tw1CkqyWqWMbGt-24" target="sZon18tw1CkqyWqWMbGt-20" edge="1">
          <mxGeometry relative="1" as="geometry">
            <mxPoint x="1072.96" y="1015.3500000000001" as="sourcePoint" />
            <mxPoint x="997.5" y="942.5" as="targetPoint" />
          </mxGeometry>
        </mxCell>
        <mxCell id="sZon18tw1CkqyWqWMbGt-35" style="endArrow=none;html=1;fontFamily=Helvetica;fontSize=11;fontColor=#000000;align=center;strokeColor=#d79b00;edgeStyle=orthogonalEdgeStyle;exitX=0.565;exitY=-0.004;exitDx=0;exitDy=0;exitPerimeter=0;entryX=0;entryY=0.5;entryDx=0;entryDy=0;fillColor=#ffe6cc;" parent="1" source="sZon18tw1CkqyWqWMbGt-25" target="sZon18tw1CkqyWqWMbGt-20" edge="1">
          <mxGeometry relative="1" as="geometry">
            <mxPoint x="1082.96" y="1025.3500000000001" as="sourcePoint" />
            <mxPoint x="1007.5" y="952.5" as="targetPoint" />
          </mxGeometry>
        </mxCell>
        <mxCell id="sZon18tw1CkqyWqWMbGt-36" style="endArrow=none;html=1;fontFamily=Helvetica;fontSize=11;fontColor=#000000;align=center;strokeColor=#d79b00;edgeStyle=orthogonalEdgeStyle;exitX=1;exitY=0.5;exitDx=0;exitDy=0;entryX=0.001;entryY=0.802;entryDx=0;entryDy=0;entryPerimeter=0;fillColor=#ffe6cc;" parent="1" source="sZon18tw1CkqyWqWMbGt-27" target="sZon18tw1CkqyWqWMbGt-19" edge="1">
          <mxGeometry relative="1" as="geometry">
            <mxPoint x="827.7999999999997" y="1009.6800000000001" as="sourcePoint" />
            <mxPoint x="997.5" y="942.5" as="targetPoint" />
          </mxGeometry>
        </mxCell>
        <mxCell id="sZon18tw1CkqyWqWMbGt-37" style="endArrow=none;html=1;fontFamily=Helvetica;fontSize=11;fontColor=#000000;align=center;strokeColor=#d79b00;edgeStyle=orthogonalEdgeStyle;entryX=0;entryY=0.805;entryDx=0;entryDy=0;entryPerimeter=0;fillColor=#ffe6cc;" parent="1" source="sZon18tw1CkqyWqWMbGt-26" target="sZon18tw1CkqyWqWMbGt-19" edge="1">
          <mxGeometry relative="1" as="geometry">
            <mxPoint x="723.48" y="821.1200000000001" as="sourcePoint" />
            <mxPoint x="898" y="840" as="targetPoint" />
          </mxGeometry>
        </mxCell>
        <mxCell id="sZon18tw1CkqyWqWMbGt-39" style="endArrow=none;html=1;fontFamily=Helvetica;fontSize=11;fontColor=#000000;align=center;strokeColor=#d79b00;edgeStyle=orthogonalEdgeStyle;exitX=0.5;exitY=0;exitDx=0;exitDy=0;entryX=0.5;entryY=1;entryDx=0;entryDy=0;fillColor=#ffe6cc;" parent="1" source="sZon18tw1CkqyWqWMbGt-30" edge="1" target="sZon18tw1CkqyWqWMbGt-25">
          <mxGeometry relative="1" as="geometry">
            <mxPoint x="684.86" y="1093.8600000000001" as="sourcePoint" />
            <mxPoint x="819.9999999999999" y="1090" as="targetPoint" />
          </mxGeometry>
        </mxCell>
        <mxCell id="sZon18tw1CkqyWqWMbGt-40" style="endArrow=none;html=1;fontFamily=Helvetica;fontSize=11;fontColor=#000000;align=center;strokeColor=#d79b00;edgeStyle=orthogonalEdgeStyle;exitX=0.5;exitY=0;exitDx=0;exitDy=0;entryX=0.5;entryY=1;entryDx=0;entryDy=0;fillColor=#ffe6cc;" parent="1" source="sZon18tw1CkqyWqWMbGt-28" edge="1" target="sZon18tw1CkqyWqWMbGt-25">
          <mxGeometry relative="1" as="geometry">
            <mxPoint x="640.3199999999999" y="1139.04" as="sourcePoint" />
            <mxPoint x="820" y="1090" as="targetPoint" />
          </mxGeometry>
        </mxCell>
        <mxCell id="sZon18tw1CkqyWqWMbGt-41" style="endArrow=none;html=1;fontFamily=Helvetica;fontSize=11;fontColor=#000000;align=center;strokeColor=#d79b00;edgeStyle=orthogonalEdgeStyle;exitX=0.5;exitY=0;exitDx=0;exitDy=0;fillColor=#ffe6cc;entryX=0.5;entryY=1;entryDx=0;entryDy=0;" parent="1" source="sZon18tw1CkqyWqWMbGt-29" edge="1" target="sZon18tw1CkqyWqWMbGt-25">
          <mxGeometry relative="1" as="geometry">
            <mxPoint x="650.3199999999999" y="1149.04" as="sourcePoint" />
            <mxPoint x="820" y="1090" as="targetPoint" />
          </mxGeometry>
        </mxCell>
        <mxCell id="sZon18tw1CkqyWqWMbGt-42" value="&lt;font style=&quot;font-size: 18px&quot;&gt;Owner&lt;/font&gt;" style="rhombus;whiteSpace=wrap;html=1;fillColor=#fff2cc;strokeColor=#d6b656;" parent="1" vertex="1">
          <mxGeometry x="560" y="660" width="130" height="80" as="geometry" />
        </mxCell>
        <mxCell id="sZon18tw1CkqyWqWMbGt-49" value="" style="endArrow=none;html=1;rounded=0;exitX=0.436;exitY=0.014;exitDx=0;exitDy=0;exitPerimeter=0;entryX=1;entryY=0.5;entryDx=0;entryDy=0;fillColor=#fff2cc;strokeColor=#d6b656;" parent="1" source="sZon18tw1CkqyWqWMbGt-19" target="sZon18tw1CkqyWqWMbGt-42" edge="1">
          <mxGeometry relative="1" as="geometry">
            <mxPoint x="800" y="619.41" as="sourcePoint" />
            <mxPoint x="740" y="690" as="targetPoint" />
            <Array as="points">
              <mxPoint x="960" y="700" />
            </Array>
          </mxGeometry>
        </mxCell>
        <mxCell id="sZon18tw1CkqyWqWMbGt-50" value="N" style="resizable=0;html=1;align=right;verticalAlign=bottom;" parent="sZon18tw1CkqyWqWMbGt-49" connectable="0" vertex="1">
          <mxGeometry x="1" relative="1" as="geometry">
            <mxPoint x="10.02" as="offset" />
          </mxGeometry>
        </mxCell>
        <mxCell id="sZon18tw1CkqyWqWMbGt-51" value="" style="endArrow=none;html=1;rounded=0;entryX=0;entryY=0.5;entryDx=0;entryDy=0;exitX=0.5;exitY=1;exitDx=0;exitDy=0;fillColor=#fff2cc;strokeColor=#d6b656;" parent="1" source="sZon18tw1CkqyWqWMbGt-6" target="sZon18tw1CkqyWqWMbGt-42" edge="1">
          <mxGeometry relative="1" as="geometry">
            <mxPoint x="400" y="690" as="sourcePoint" />
            <mxPoint x="620" y="810" as="targetPoint" />
            <Array as="points">
              <mxPoint x="200" y="700" />
            </Array>
          </mxGeometry>
        </mxCell>
        <mxCell id="sZon18tw1CkqyWqWMbGt-52" value="1" style="resizable=0;html=1;align=right;verticalAlign=bottom;" parent="sZon18tw1CkqyWqWMbGt-51" connectable="0" vertex="1">
          <mxGeometry x="1" relative="1" as="geometry">
            <mxPoint as="offset" />
          </mxGeometry>
        </mxCell>
        <mxCell id="sZon18tw1CkqyWqWMbGt-53" value="&lt;font style=&quot;font-size: 18px&quot;&gt;Assigne&lt;/font&gt;" style="rhombus;whiteSpace=wrap;html=1;fillColor=#fff2cc;strokeColor=#d6b656;" parent="1" vertex="1">
          <mxGeometry x="560" y="570" width="130" height="80" as="geometry" />
        </mxCell>
        <mxCell id="sZon18tw1CkqyWqWMbGt-54" value="&lt;font style=&quot;font-size: 18px&quot;&gt;Member&lt;/font&gt;" style="rhombus;whiteSpace=wrap;html=1;fillColor=#fff2cc;strokeColor=#d6b656;" parent="1" vertex="1">
          <mxGeometry x="560" y="480" width="130" height="80" as="geometry" />
        </mxCell>
        <mxCell id="sZon18tw1CkqyWqWMbGt-55" value="" style="endArrow=none;html=1;rounded=0;entryX=0;entryY=0.5;entryDx=0;entryDy=0;exitX=1;exitY=0.406;exitDx=0;exitDy=0;exitPerimeter=0;fillColor=#fff2cc;strokeColor=#d6b656;" parent="1" source="sZon18tw1CkqyWqWMbGt-6" target="sZon18tw1CkqyWqWMbGt-53" edge="1">
          <mxGeometry relative="1" as="geometry">
            <mxPoint x="250" y="600" as="sourcePoint" />
            <mxPoint x="530" y="600" as="targetPoint" />
          </mxGeometry>
        </mxCell>
        <mxCell id="sZon18tw1CkqyWqWMbGt-56" value="N" style="resizable=0;html=1;align=right;verticalAlign=bottom;" parent="sZon18tw1CkqyWqWMbGt-55" connectable="0" vertex="1">
          <mxGeometry x="1" relative="1" as="geometry" />
        </mxCell>
        <mxCell id="sZon18tw1CkqyWqWMbGt-57" value="" style="endArrow=none;html=1;rounded=0;entryX=1;entryY=0.5;entryDx=0;entryDy=0;exitX=0.439;exitY=0.025;exitDx=0;exitDy=0;exitPerimeter=0;fillColor=#fff2cc;strokeColor=#d6b656;" parent="1" source="sZon18tw1CkqyWqWMbGt-19" target="sZon18tw1CkqyWqWMbGt-53" edge="1">
          <mxGeometry relative="1" as="geometry">
            <mxPoint x="790" y="600" as="sourcePoint" />
            <mxPoint x="950" y="600" as="targetPoint" />
            <Array as="points">
              <mxPoint x="961" y="610" />
            </Array>
          </mxGeometry>
        </mxCell>
        <mxCell id="sZon18tw1CkqyWqWMbGt-58" value="N" style="resizable=0;html=1;align=right;verticalAlign=bottom;" parent="sZon18tw1CkqyWqWMbGt-57" connectable="0" vertex="1">
          <mxGeometry x="1" relative="1" as="geometry">
            <mxPoint x="9.75" as="offset" />
          </mxGeometry>
        </mxCell>
        <mxCell id="sZon18tw1CkqyWqWMbGt-59" value="" style="endArrow=none;html=1;rounded=0;exitX=0.833;exitY=-0.011;exitDx=0;exitDy=0;exitPerimeter=0;fillColor=#fff2cc;strokeColor=#d6b656;" parent="1" source="sZon18tw1CkqyWqWMbGt-6" edge="1">
          <mxGeometry relative="1" as="geometry">
            <mxPoint x="240" y="520" as="sourcePoint" />
            <mxPoint x="560" y="520" as="targetPoint" />
            <Array as="points">
              <mxPoint x="240" y="520" />
            </Array>
          </mxGeometry>
        </mxCell>
        <mxCell id="3uCxtjvcboZ2eXP3qQcn-1" value="" style="endArrow=none;html=1;exitX=1;exitY=0.5;exitDx=0;exitDy=0;entryX=0.436;entryY=0;entryDx=0;entryDy=0;entryPerimeter=0;fillColor=#fff2cc;strokeColor=#d6b656;" edge="1" parent="1" source="sZon18tw1CkqyWqWMbGt-54" target="sZon18tw1CkqyWqWMbGt-19">
          <mxGeometry width="50" height="50" relative="1" as="geometry">
            <mxPoint x="910" y="670" as="sourcePoint" />
            <mxPoint x="960" y="620" as="targetPoint" />
            <Array as="points">
              <mxPoint x="961" y="520" />
            </Array>
          </mxGeometry>
        </mxCell>
        <mxCell id="3uCxtjvcboZ2eXP3qQcn-2" value="" style="rhombus;whiteSpace=wrap;html=1;fillColor=#e1d5e7;strokeColor=#9673a6;" vertex="1" parent="1">
          <mxGeometry x="1080" y="690" width="70" height="40" as="geometry" />
        </mxCell>
        <mxCell id="3uCxtjvcboZ2eXP3qQcn-3" value="&lt;font style=&quot;font-size: 24px&quot;&gt;Tag&lt;/font&gt;" style="rounded=1;whiteSpace=wrap;html=1;fillColor=#dae8fc;strokeColor=#6c8ebf;" vertex="1" parent="1">
          <mxGeometry x="1055" y="580" width="120" height="60" as="geometry" />
        </mxCell>
        <mxCell id="3uCxtjvcboZ2eXP3qQcn-6" value="" style="endArrow=none;html=1;rounded=0;entryX=0.5;entryY=1;entryDx=0;entryDy=0;exitX=1;exitY=0.5;exitDx=0;exitDy=0;fillColor=#dae8fc;strokeColor=#6c8ebf;" edge="1" parent="1" source="sZon18tw1CkqyWqWMbGt-19" target="3uCxtjvcboZ2eXP3qQcn-2">
          <mxGeometry relative="1" as="geometry">
            <mxPoint x="1080" y="800" as="sourcePoint" />
            <mxPoint x="1240" y="800" as="targetPoint" />
            <Array as="points">
              <mxPoint x="1115" y="815" />
            </Array>
          </mxGeometry>
        </mxCell>
        <mxCell id="3uCxtjvcboZ2eXP3qQcn-7" value="N" style="resizable=0;html=1;align=right;verticalAlign=bottom;" connectable="0" vertex="1" parent="3uCxtjvcboZ2eXP3qQcn-6">
          <mxGeometry x="1" relative="1" as="geometry">
            <mxPoint x="-10" y="20" as="offset" />
          </mxGeometry>
        </mxCell>
        <mxCell id="3uCxtjvcboZ2eXP3qQcn-11" value="" style="endArrow=none;html=1;rounded=0;exitX=0.5;exitY=1;exitDx=0;exitDy=0;entryX=0.5;entryY=0;entryDx=0;entryDy=0;fillColor=#dae8fc;strokeColor=#6c8ebf;" edge="1" parent="1" source="3uCxtjvcboZ2eXP3qQcn-3" target="3uCxtjvcboZ2eXP3qQcn-2">
          <mxGeometry relative="1" as="geometry">
            <mxPoint x="1170" y="690" as="sourcePoint" />
            <mxPoint x="1330" y="690" as="targetPoint" />
          </mxGeometry>
        </mxCell>
        <mxCell id="3uCxtjvcboZ2eXP3qQcn-12" value="N" style="resizable=0;html=1;align=right;verticalAlign=bottom;" connectable="0" vertex="1" parent="3uCxtjvcboZ2eXP3qQcn-11">
          <mxGeometry x="1" relative="1" as="geometry">
            <mxPoint x="-10" as="offset" />
          </mxGeometry>
        </mxCell>
        <mxCell id="3uCxtjvcboZ2eXP3qQcn-13" value="&lt;font style=&quot;font-size: 18px&quot;&gt;order&lt;/font&gt;" style="ellipse;whiteSpace=wrap;html=1;align=center;fillColor=#ffe6cc;strokeColor=#d79b00;" vertex="1" parent="1">
          <mxGeometry x="1005" y="480" width="100" height="50" as="geometry" />
        </mxCell>
        <mxCell id="3uCxtjvcboZ2eXP3qQcn-14" value="&lt;font style=&quot;font-size: 18px&quot;&gt;order&lt;/font&gt;" style="ellipse;whiteSpace=wrap;html=1;align=center;fillColor=#ffe6cc;strokeColor=#d79b00;" vertex="1" parent="1">
          <mxGeometry x="1130" y="480" width="100" height="50" as="geometry" />
        </mxCell>
        <mxCell id="3uCxtjvcboZ2eXP3qQcn-15" value="" style="endArrow=none;html=1;entryX=0.5;entryY=1;entryDx=0;entryDy=0;exitX=0.5;exitY=0;exitDx=0;exitDy=0;fillColor=#ffe6cc;strokeColor=#d79b00;" edge="1" parent="1" source="3uCxtjvcboZ2eXP3qQcn-3" target="3uCxtjvcboZ2eXP3qQcn-13">
          <mxGeometry width="50" height="50" relative="1" as="geometry">
            <mxPoint x="990" y="600" as="sourcePoint" />
            <mxPoint x="1040" y="550" as="targetPoint" />
          </mxGeometry>
        </mxCell>
        <mxCell id="3uCxtjvcboZ2eXP3qQcn-16" value="" style="endArrow=none;html=1;entryX=0.5;entryY=1;entryDx=0;entryDy=0;exitX=0.5;exitY=0;exitDx=0;exitDy=0;fillColor=#ffe6cc;strokeColor=#d79b00;" edge="1" parent="1" source="3uCxtjvcboZ2eXP3qQcn-3" target="3uCxtjvcboZ2eXP3qQcn-14">
          <mxGeometry width="50" height="50" relative="1" as="geometry">
            <mxPoint x="1190" y="590" as="sourcePoint" />
            <mxPoint x="1130" y="540" as="targetPoint" />
          </mxGeometry>
        </mxCell>
      </root>
    </mxGraphModel>
  </diagram>
</mxfile>
